<?xml version="1.0" encoding="UTF-8"?>
<svg version="1.1" xmlns="http://www.w3.org/2000/svg" width="220" height="240">
<path d="M0 0 C72.6 0 145.2 0 220 0 C220 79.2 220 158.4 220 240 C147.4 240 74.8 240 0 240 C0 160.8 0 81.6 0 0 Z " fill="#FCFCFC" transform="translate(0,0)"/>
<path d="M0 0 C4.97545517 3.93177922 8.07184419 8.76797303 10.16015625 14.70703125 C10.56624021 18.38633245 10.49335961 22.06984028 10.47265625 25.76953125 C10.4670166 26.80505127 10.46137695 27.84057129 10.45556641 28.9074707 C10.29383231 39.0879117 8.74832593 46.89328533 3.91015625 55.89453125 C1.00405672 61.38383037 0.69437758 64.77877084 2.16015625 70.70703125 C6.02869316 90.33004458 1.96190156 109.07546311 -8.83984375 125.70703125 C-11.35518256 129.18840598 -14.03087175 132.46137033 -16.83984375 135.70703125 C-17.47535156 136.53332031 -18.11085937 137.35960937 -18.765625 138.2109375 C-30.15361659 151.91513077 -49.46819229 162.23270096 -66.83984375 165.70703125 C-65.18986495 162.40707364 -61.56243366 161.53283839 -58.33984375 160.01953125 C-51.87258652 156.87401143 -46.18859129 153.57802659 -40.83984375 148.70703125 C-40.08316406 148.03027344 -39.32648438 147.35351562 -38.546875 146.65625 C-29.56537156 138.18625597 -23.9552879 128.27284842 -19.83984375 116.70703125 C-19.44539062 115.64613281 -19.0509375 114.58523437 -18.64453125 113.4921875 C-16.00450768 105.28596039 -15.45624292 97.59964561 -15.40234375 89.01953125 C-15.39227295 87.98675049 -15.38220215 86.95396973 -15.37182617 85.88989258 C-15.59063934 66.37827553 -23.9458852 47.36019329 -37.83984375 33.70703125 C-41.39563252 30.55667911 -45.08175929 27.61168617 -48.83984375 24.70703125 C-49.35691895 24.30387695 -49.87399414 23.90072266 -50.40673828 23.48535156 C-59.17135346 16.24452517 -59.17135346 16.24452517 -69.58203125 12.20703125 C-74.57368571 12.97313649 -78.56493684 15.30487331 -82.96484375 17.70703125 C-83.90553711 18.21250488 -84.84623047 18.71797852 -85.81542969 19.23876953 C-128.65009276 42.53390645 -173.8954002 82.41773637 -188.77734375 130.33203125 C-191.36623878 141.32262335 -190.37127344 150.80868338 -184.83984375 160.70703125 C-179.92366084 167.65537327 -172.23416841 172.25973389 -163.83984375 173.70703125 C-151.5516723 174.97140902 -138.39345724 171.83066822 -126.83984375 167.70703125 C-132.7272088 175.33880076 -143.67061881 177.96925827 -152.83984375 179.70703125 C-166.28559849 181.16407151 -178.56030139 179.09202197 -189.578125 170.82421875 C-198.02537513 162.91677562 -200.80045821 154.04173079 -201.27734375 142.89453125 C-200.94345731 121.90142139 -191.2481154 101.89068477 -179.83984375 84.70703125 C-179.42702148 84.08393066 -179.01419922 83.46083008 -178.58886719 82.81884766 C-168.03742975 67.21567956 -154.26327584 53.23291782 -139.39453125 41.69921875 C-136.91617241 39.7665536 -134.54586815 37.74944983 -132.17236328 35.69140625 C-118.78063388 24.11624566 -103.83211039 13.38233206 -87.83984375 5.70703125 C-109.49738778 -1.00129555 -141.70395145 5.24230086 -161.17578125 15.45703125 C-163.83984375 16.70703125 -163.83984375 16.70703125 -166.83984375 15.70703125 C-154.63247598 7.88577654 -143.02160564 2.2112892 -128.83984375 -1.29296875 C-127.65003906 -1.59460938 -126.46023437 -1.89625 -125.234375 -2.20703125 C-110.35175863 -5.50742493 -93.27593071 -6.58911755 -78.62109375 -1.8515625 C-71.88183834 -0.49803227 -65.09443096 -2.90300184 -58.65234375 -4.79296875 C-57.09683109 -5.24253888 -55.54085293 -5.69050201 -53.984375 -6.13671875 C-53.30737549 -6.33458984 -52.63037598 -6.53246094 -51.93286133 -6.73632812 C-34.75379136 -11.30512312 -15.04626277 -9.66385983 0 0 Z " fill="#060606" transform="translate(204.83984375,14.29296875)"/>
<path d="M0 0 C-0.6620335 5.49487806 -3.00294652 7.32599684 -7.10546875 10.76953125 C-23.17628326 23.15338427 -40.61663287 32.96416669 -60 39 C-58.35 39 -56.7 39 -55 39 C-52.2089469 75.74886579 -70.36517782 119.66868459 -93 148 C-93.66 148.33 -94.32 148.66 -95 149 C-93.73135802 145.71029761 -92.3272858 142.58873719 -90.6796875 139.47265625 C-74.15751916 107.72365282 -68.17705264 76.35109535 -65 41 C-66.44113159 40.97812622 -66.44113159 40.97812622 -67.91137695 40.95581055 C-92.18172094 40.55829288 -114.02036534 39.48352104 -137 31 C-136.26867264 26.15698769 -134.74908279 24.21349954 -131 21 C-128 20 -128 20 -126.08203125 20.8203125 C-125.33308594 21.25085938 -124.58414063 21.68140625 -123.8125 22.125 C-119.23863215 24.5365533 -114.67179561 26.22802849 -109.75 27.75 C-109.07686768 27.96027832 -108.40373535 28.17055664 -107.71020508 28.38720703 C-88.83625207 34.09160454 -65.38146078 32.96378726 -47 26 C-46.30277832 25.73767578 -45.60555664 25.47535156 -44.88720703 25.20507812 C-29.93406361 19.41138632 -16.37165271 11.23412572 -3.8203125 1.26953125 C-2 0 -2 0 0 0 Z " fill="#090909" transform="translate(177,85)"/>
<path d="M0 0 C4.48305317 4.60055255 6.41696769 9.86239389 6.44189453 16.22973633 C6.41981934 16.95443115 6.39774414 17.67912598 6.375 18.42578125 C6.3632373 19.19494873 6.35147461 19.96411621 6.33935547 20.7565918 C6.05562816 30.49161315 4.92296756 41.02964329 0.9375 49.98828125 C-1.6332706 47.41751065 -2.65660853 44.72609844 -4.1875 41.42578125 C-6.92380397 35.6922922 -10.05289113 31.20860747 -14.55859375 26.66015625 C-16.0625 24.98828125 -16.0625 24.98828125 -16.0625 22.98828125 C-16.65417969 22.72015625 -17.24585938 22.45203125 -17.85546875 22.17578125 C-20.08164755 20.97797885 -21.55486475 19.72891634 -23.375 17.98828125 C-32.39350993 9.94565485 -42.83046356 3.4250524 -54.0625 -1.01171875 C-54.0625 -1.67171875 -54.0625 -2.33171875 -54.0625 -3.01171875 C-35.50730949 -7.00642338 -17.03240526 -10.93557838 0 0 Z " fill="#FAFAFA" transform="translate(203.0625,23.01171875)"/>
<path d="M0 0 C4.6425591 3.0598685 8.48316539 6.68229537 10.75 11.8125 C11.31344326 17.63474698 10.79995246 21.66570522 7.75 26.8125 C2.26822987 31.88313737 -2.41304016 34.19117184 -9.90234375 34.09375 C-14.8659613 33.49910697 -18.14582633 30.97635873 -21.5625 27.375 C-24.79321913 22.46909317 -25.85196955 18.73186727 -25.25 12.8125 C-23.11987254 6.66391588 -20.04360171 2.9926404 -14.3671875 -0.26953125 C-9.67425665 -2.30428909 -4.69796451 -1.71656396 0 0 Z " fill="#070707" transform="translate(120.25,64.1875)"/>
<path d="M0 0 C2.4375 2.125 2.4375 2.125 4 5 C3.936318 8.18409977 3.51040601 10.14932332 1.875 12.875 C-1.16832808 14.70099685 -3.54249555 14.42460581 -7 14 C-9.4375 12.375 -9.4375 12.375 -11 10 C-11.5625 7 -11.5625 7 -11 4 C-7.67183488 0.28028604 -4.94563946 -0.94703734 0 0 Z " fill="#F6F6F7" transform="translate(124,74)"/>
<path d="M0 0 C0 3.51716303 -0.82445585 4.37121748 -3 7 C-2.34 7.66 -1.68 8.32 -1 9 C-20.84711669 19.25973912 -20.84711669 19.25973912 -28 21 C-28.66 20.67 -29.32 20.34 -30 20 C-28.87722656 19.43152344 -27.75445312 18.86304688 -26.59765625 18.27734375 C-16.65118138 13.17251569 -7.89410183 8.03351202 0 0 Z " fill="#141414" transform="translate(168,159)"/>
<path d="M0 0 C0.66 0.33 1.32 0.66 2 1 C1.5 2.79296875 1.5 2.79296875 0 5 C-2.55233663 6.42042418 -5.24716075 7.35237512 -8 8.3125 C-8.73734375 8.58900391 -9.4746875 8.86550781 -10.234375 9.15039062 C-12.13206127 9.83778246 -14.06483467 10.42654045 -16 11 C-16.66 10.67 -17.32 10.34 -18 10 C-17.49025635 9.7326001 -16.9805127 9.4652002 -16.45532227 9.18969727 C-14.15670784 7.9825377 -11.85958995 6.77255777 -9.5625 5.5625 C-8.76005859 5.14162109 -7.95761719 4.72074219 -7.13085938 4.28710938 C-6.36708984 3.88427734 -5.60332031 3.48144531 -4.81640625 3.06640625 C-4.10943604 2.69459229 -3.40246582 2.32277832 -2.67407227 1.93969727 C-1.02071254 1.11087599 -1.02071254 1.11087599 0 0 Z " fill="#262626" transform="translate(156,169)"/>
<path d="M0 0 C0.66 1.32 1.32 2.64 2 4 C0.06767179 4.86580287 -1.87107194 5.71729941 -3.8125 6.5625 C-4.89144531 7.03816406 -5.97039063 7.51382812 -7.08203125 8.00390625 C-10 9 -10 9 -13 8 C-8.71 5.36 -4.42 2.72 0 0 Z " fill="#262626" transform="translate(51,22)"/>
<path d="M0 0 C0.66 0.33 1.32 0.66 2 1 C0.58833114 1.98635837 -0.82956184 2.96381255 -2.25 3.9375 C-3.43335937 4.75541016 -3.43335937 4.75541016 -4.640625 5.58984375 C-6.82636993 6.89622441 -8.5153801 7.54980511 -11 8 C-11.33 6.68 -11.66 5.36 -12 4 C-11.30132812 3.79503906 -10.60265625 3.59007812 -9.8828125 3.37890625 C-8.97273438 3.10949219 -8.06265625 2.84007812 -7.125 2.5625 C-6.22007813 2.29566406 -5.31515625 2.02882812 -4.3828125 1.75390625 C-2.01724619 1.07386174 -2.01724619 1.07386174 0 0 Z " fill="#333333" transform="translate(76,182)"/>
<path d="M0 0 C0.33 0 0.66 0 1 0 C1.50630789 5.33205494 0.25713268 7.70179875 -3 11.875 C-3.7425 12.84179688 -4.485 13.80859375 -5.25 14.8046875 C-5.8275 15.52914062 -6.405 16.25359375 -7 17 C-7.33 16.34 -7.66 15.68 -8 15 C-6.75874818 12.38838269 -5.4689476 9.89498214 -4.0625 7.375 C-3.48338867 6.31539062 -3.48338867 6.31539062 -2.89257812 5.234375 C-1.93551304 3.48566349 -0.96865969 1.74231568 0 0 Z " fill="#3D3D3D" transform="translate(90,217)"/>
<path d="M0 0 C-1.46436285 4.63714903 -1.46436285 4.63714903 -3.9375 6.3125 C-6 7 -6 7 -9 7 C-8.875 5.1875 -8.875 5.1875 -8 3 C-2.96428571 0 -2.96428571 0 0 0 Z " fill="#111111" transform="translate(61,18)"/>
<path d="M0 0 C0.33 0.99 0.66 1.98 1 3 C-0.4375 5.6875 -0.4375 5.6875 -2 8 C-3.32 7.67 -4.64 7.34 -6 7 C-4.52307692 2.32307692 -4.52307692 2.32307692 -1.875 0.6875 C-1.25625 0.460625 -0.6375 0.23375 0 0 Z " fill="#191919" transform="translate(209,66)"/>
<path d="M0 0 C0.66 0.33 1.32 0.66 2 1 C1.19185349 2.33597652 0.37836819 3.668725 -0.4375 5 C-0.88996094 5.7425 -1.34242187 6.485 -1.80859375 7.25 C-2.20175781 7.8275 -2.59492187 8.405 -3 9 C-3.33 9 -3.66 9 -4 9 C-4.125 3.25 -4.125 3.25 -3 1 C-2.01 0.67 -1.02 0.34 0 0 Z " fill="#1F1F1F" transform="translate(95,212)"/>
<path d="M0 0 C0.66 1.32 1.32 2.64 2 4 C-1.75 7 -1.75 7 -4 7 C-3.39816251 4.97954558 -2.72693904 2.97888961 -2 1 C-1.34 0.67 -0.68 0.34 0 0 Z " fill="#111111" transform="translate(97,206)"/>
</svg>
